<?xml version="1.0" encoding="utf-8"?>
<!-- Generator: Adobe Illustrator 15.0.2, SVG Export Plug-In . SVG Version: 6.00 Build 0)  -->
<!DOCTYPE svg PUBLIC "-//W3C//DTD SVG 1.1//EN" "http://www.w3.org/Graphics/SVG/1.1/DTD/svg11.dtd">
<svg version="1.1" id="Layer_1" xmlns="http://www.w3.org/2000/svg" xmlns:xlink="http://www.w3.org/1999/xlink" x="0px" y="0px"
	 width="110.9px" height="93.2px" viewBox="0 0 110.9 93.2" style="enable-background:new 0 0 110.9 93.2;" xml:space="preserve">
<style type="text/css">
<![CDATA[
	.st0{fill:#141006;}
	.st1{clip-path:url(#SVGID_12_);fill:#141006;}
	.st2{clip-path:url(#SVGID_2_);fill:#141006;}
	.st3{clip-path:url(#SVGID_14_);fill:#141006;}
	.st4{clip-path:url(#SVGID_4_);fill:#141006;}
	.st5{clip-path:url(#SVGID_6_);fill:#141006;}
	.st6{clip-path:url(#SVGID_8_);fill:#141006;}
	.st7{fill:#775C50;}
	.st8{clip-path:url(#SVGID_10_);fill:#141006;}
]]>
</style>
<path class="st7" d="M70.3,0H40.6L25.8,25.7L40,50.3l0,0l0,0l0.6,1h29.7l14.8-25.7L70.3,0z M72,44.3H45.9l1.7-2.9h26.1L72,44.3z
	 M48.7,39.4l1.7-2.9h26.1l-1.7,2.9L48.7,39.4z M51.6,34.5l1.7-2.9l26.1,0l-1.7,2.9H51.6z M54.4,29.5l1.6-2.8h26.1l-1.6,2.8H54.4z
	 M45.7,10.8l-13,22.6L31,30.5L44,7.9L45.7,10.8z M46.9,12.9l1.7,2.9l-13,22.6l-1.7-2.9L46.9,12.9z M49.7,17.8l1.7,2.9l-13,22.6
	l-1.7-2.9L49.7,17.8z M43,2.1h3.2l13,22.6h-3.2L43,2.1z M73.2,24.7l-13-22.6h3.4l13,22.6H73.2z M70.8,24.7h-3.4l-13-22.6h3.4
	L70.8,24.7z M65.1,24.7h-3.4l-13-22.6H52L65.1,24.7z M82.1,24.7h-3.2l-13-22.6h3.2L82.1,24.7z M41.3,3.1l1.6,2.7l-13,22.6l-1.6-2.7
	L41.3,3.1z M39.6,45.3l13-22.6l1.7,2.9l-13,22.6L39.6,45.3z M69.1,49.3H43l1.7-2.9h26.1L69.1,49.3z"/>
<g>
	<defs>
		<rect id="SVGID_1_" width="110.9" height="93.2"/>
	</defs>
	<clipPath id="SVGID_2_">
		<use xlink:href="#SVGID_1_"  style="overflow:visible;"/>
	</clipPath>
	<path class="st2" d="M6.5,85.5h2c0.4,0,0.8,0.1,1.1,0.1c0.3,0.1,0.6,0.2,0.8,0.4c0.2,0.2,0.4,0.3,0.6,0.5c0.1,0.2,0.3,0.4,0.4,0.6
		c0.1,0.2,0.1,0.4,0.2,0.6c0,0.2,0.1,0.4,0.1,0.6c0,0.4-0.1,0.7-0.2,1.1c-0.1,0.3-0.3,0.7-0.6,0.9c-0.3,0.3-0.6,0.5-1,0.7
		c-0.4,0.2-0.9,0.2-1.4,0.2H6.5V85.5z M7.3,90.6h1c0.3,0,0.6,0,0.9-0.1c0.3-0.1,0.6-0.2,0.8-0.4c0.2-0.2,0.4-0.4,0.5-0.7
		c0.1-0.3,0.2-0.6,0.2-1c0-0.2,0-0.4-0.1-0.7c-0.1-0.3-0.2-0.5-0.3-0.7c-0.2-0.2-0.4-0.4-0.7-0.6c-0.3-0.2-0.7-0.2-1.2-0.2H7.3V90.6
		z"/>
</g>
<path class="st0" d="M16.2,85.5h0.7l2.5,5.8h-0.9l-0.6-1.4h-2.8l-0.6,1.4h-0.9L16.2,85.5z M17.6,89.2l-1.1-2.7h0l-1.1,2.7H17.6z"/>
<polygon class="st0" points="22.2,86.2 20.3,86.2 20.3,85.5 24.8,85.5 24.8,86.2 23,86.2 23,91.3 22.2,91.3 "/>
<g>
	<defs>
		<rect id="SVGID_3_" width="110.9" height="93.2"/>
	</defs>
	<clipPath id="SVGID_4_">
		<use xlink:href="#SVGID_3_"  style="overflow:visible;"/>
	</clipPath>
	<path class="st4" d="M28.8,92.7c0.2,0.1,0.4,0.1,0.6,0.1c0,0,0.1,0,0.2,0c0.1,0,0.1,0,0.2-0.1c0,0,0.1-0.1,0.1-0.1
		c0,0,0.1-0.1,0.1-0.2c0-0.1,0-0.2-0.1-0.2c-0.1,0-0.1-0.1-0.2-0.1c-0.1,0-0.2,0-0.3,0c-0.1,0-0.2,0-0.2,0L29,92l0.4-0.6
		c-0.3,0-0.5-0.1-0.8-0.2c-0.4-0.2-0.7-0.4-0.9-0.7c-0.3-0.3-0.5-0.6-0.6-1c-0.1-0.4-0.2-0.7-0.2-1.1c0-0.4,0.1-0.9,0.2-1.2
		c0.2-0.4,0.4-0.7,0.6-1c0.3-0.3,0.6-0.5,1-0.6c0.4-0.2,0.8-0.2,1.2-0.2c0.4,0,0.8,0.1,1.1,0.2c0.4,0.1,0.7,0.4,0.9,0.7l-0.7,0.5
		c-0.2-0.2-0.4-0.4-0.6-0.5c-0.2-0.1-0.5-0.2-0.8-0.2c-0.3,0-0.6,0.1-0.9,0.2c-0.3,0.1-0.5,0.3-0.7,0.5c-0.2,0.2-0.3,0.5-0.4,0.8
		c-0.1,0.3-0.2,0.6-0.2,0.9c0,0.3,0.1,0.6,0.1,0.9c0.1,0.3,0.2,0.5,0.4,0.7c0.2,0.2,0.4,0.4,0.7,0.5c0.3,0.1,0.6,0.2,0.9,0.2
		c0.3,0,0.6-0.1,0.9-0.2c0.2-0.1,0.5-0.3,0.6-0.6l0.7,0.5c0,0.1-0.1,0.1-0.2,0.3c-0.1,0.1-0.3,0.2-0.4,0.3c-0.2,0.1-0.4,0.2-0.7,0.3
		c-0.3,0.1-0.6,0.1-0.9,0.1h-0.1l-0.3,0.4h0.2c0.1,0,0.2,0,0.3,0c0.1,0,0.2,0.1,0.2,0.1c0.1,0,0.1,0.1,0.2,0.2
		c0,0.1,0.1,0.2,0.1,0.3c0,0.2,0,0.3-0.1,0.4c-0.1,0.1-0.1,0.2-0.2,0.2c-0.1,0.1-0.2,0.1-0.3,0.1c-0.1,0-0.2,0-0.4,0
		c-0.2,0-0.3,0-0.4,0c-0.1,0-0.3-0.1-0.4-0.1L28.8,92.7z"/>
</g>
<path class="st0" d="M36.5,85.5h0.7l2.5,5.8h-0.9l-0.6-1.4h-2.8l-0.6,1.4h-0.9L36.5,85.5z M37.9,89.2l-1.1-2.7h0l-1.1,2.7H37.9z"/>
<g>
	<defs>
		<rect id="SVGID_5_" width="110.9" height="93.2"/>
	</defs>
	<clipPath id="SVGID_6_">
		<use xlink:href="#SVGID_5_"  style="overflow:visible;"/>
	</clipPath>
	<path class="st5" d="M45.9,85.5h2.1c0.4,0,0.7,0.1,0.9,0.2c0.2,0.1,0.4,0.2,0.6,0.4c0.1,0.2,0.2,0.3,0.3,0.5
		c0.1,0.2,0.1,0.4,0.1,0.6s0,0.4-0.1,0.6c-0.1,0.2-0.1,0.4-0.3,0.5c-0.1,0.2-0.3,0.3-0.6,0.4c-0.2,0.1-0.5,0.2-0.9,0.2h-1.3v2.6
		h-0.8V85.5z M46.6,88.1h1c0.2,0,0.3,0,0.5,0c0.1,0,0.3-0.1,0.4-0.1c0.1-0.1,0.2-0.2,0.3-0.3c0.1-0.1,0.1-0.3,0.1-0.5
		c0-0.2,0-0.4-0.1-0.5c-0.1-0.1-0.2-0.2-0.3-0.3c-0.1-0.1-0.3-0.1-0.4-0.1c-0.2,0-0.3,0-0.5,0h-1V88.1z"/>
</g>
<polygon class="st0" points="52.3,85.5 56.1,85.5 56.1,86.2 53.1,86.2 53.1,88 55.9,88 55.9,88.7 53.1,88.7 53.1,90.6 56.2,90.6 
	56.2,91.3 52.3,91.3 "/>
<polygon class="st0" points="58.9,85.5 60,85.5 63.2,90.3 63.2,90.3 63.2,85.5 64,85.5 64,91.3 63,91.3 59.7,86.5 59.7,86.5 
	59.7,91.3 58.9,91.3 "/>
<rect x="67.1" y="85.5" class="st0" width="0.8" height="5.8"/>
<polygon class="st0" points="70.9,85.5 72,85.5 75.2,90.3 75.2,90.3 75.2,85.5 76,85.5 76,91.3 75,91.3 71.7,86.5 71.7,86.5 
	71.7,91.3 70.9,91.3 "/>
<g>
	<defs>
		<rect id="SVGID_7_" width="110.9" height="93.2"/>
	</defs>
	<clipPath id="SVGID_8_">
		<use xlink:href="#SVGID_7_"  style="overflow:visible;"/>
	</clipPath>
	<path class="st6" d="M79.2,90.1c0.1,0.2,0.3,0.4,0.6,0.5c0.2,0.1,0.5,0.2,0.7,0.2c0.1,0,0.3,0,0.4-0.1c0.1,0,0.3-0.1,0.4-0.2
		c0.1-0.1,0.2-0.2,0.3-0.3c0.1-0.1,0.1-0.3,0.1-0.4c0-0.2-0.1-0.4-0.2-0.5c-0.1-0.1-0.3-0.2-0.5-0.3c-0.2-0.1-0.4-0.2-0.7-0.2
		c-0.2-0.1-0.5-0.2-0.7-0.3c-0.2-0.1-0.4-0.3-0.5-0.5c-0.1-0.2-0.2-0.5-0.2-0.9c0-0.2,0-0.4,0.1-0.6c0.1-0.2,0.2-0.4,0.4-0.5
		c0.2-0.2,0.4-0.3,0.6-0.4c0.2-0.1,0.6-0.2,0.9-0.2c0.3,0,0.6,0,0.9,0.1c0.3,0.1,0.5,0.3,0.8,0.5l-0.6,0.6c-0.1-0.2-0.2-0.3-0.4-0.4
		c-0.2-0.1-0.4-0.1-0.6-0.1c-0.2,0-0.4,0-0.5,0.1c-0.1,0.1-0.3,0.1-0.3,0.2c-0.1,0.1-0.1,0.2-0.2,0.3c0,0.1-0.1,0.2-0.1,0.3
		c0,0.2,0.1,0.4,0.2,0.6c0.1,0.1,0.3,0.2,0.5,0.3c0.2,0.1,0.4,0.2,0.7,0.2c0.2,0.1,0.5,0.2,0.7,0.3c0.2,0.1,0.4,0.3,0.5,0.5
		c0.1,0.2,0.2,0.5,0.2,0.8c0,0.3-0.1,0.5-0.2,0.8c-0.1,0.2-0.2,0.4-0.4,0.6c-0.2,0.2-0.4,0.3-0.6,0.4c-0.2,0.1-0.5,0.1-0.8,0.1
		c-0.4,0-0.7-0.1-1.1-0.2s-0.6-0.3-0.8-0.6L79.2,90.1z"/>
	<path class="st6" d="M85.9,85.5v3.6c0,0.2,0,0.4,0.1,0.6c0.1,0.2,0.1,0.4,0.3,0.5c0.1,0.2,0.3,0.3,0.5,0.4c0.2,0.1,0.4,0.2,0.7,0.2
		c0.3,0,0.5-0.1,0.7-0.2c0.2-0.1,0.3-0.2,0.5-0.4c0.1-0.2,0.2-0.3,0.2-0.5c0-0.2,0.1-0.4,0.1-0.6v-3.6h0.8v3.7
		c0,0.3-0.1,0.7-0.2,0.9c-0.1,0.3-0.3,0.5-0.5,0.7c-0.2,0.2-0.4,0.4-0.7,0.5c-0.3,0.1-0.6,0.2-0.9,0.2s-0.6-0.1-0.9-0.2
		c-0.3-0.1-0.5-0.3-0.7-0.5c-0.2-0.2-0.4-0.4-0.5-0.7c-0.1-0.3-0.2-0.6-0.2-0.9v-3.7H85.9z"/>
</g>
<polygon class="st0" points="92.6,85.5 93.4,85.5 93.4,90.6 96,90.6 96,91.3 92.6,91.3 "/>
<path class="st0" d="M100.3,85.5h0.7l2.5,5.8h-0.9l-0.6-1.4h-2.8l-0.6,1.4h-0.9L100.3,85.5z M101.7,89.2l-1.1-2.7h0l-1.1,2.7H101.7z
	"/>
<g>
	<defs>
		<rect id="SVGID_9_" width="110.9" height="93.2"/>
	</defs>
	<clipPath id="SVGID_10_">
		<use xlink:href="#SVGID_9_"  style="overflow:visible;"/>
	</clipPath>
	<path class="st8" d="M10.6,71.1c0,3.2-2.1,5.5-5.9,5.5H0V65.5h4.8C8.4,65.5,10.6,67.9,10.6,71.1 M1.4,66.8v8.6h3.4
		c2.9,0,4.4-1.8,4.4-4.3c0-2.5-1.7-4.3-4.4-4.3H1.4z"/>
</g>
<polygon class="st0" points="19.3,65.5 20.6,65.5 25.1,72.3 29.6,65.5 30.9,65.5 30.9,76.6 29.5,76.6 29.5,67.9 25.1,74.5 
	20.7,67.9 20.7,76.6 19.3,76.6 "/>
<g>
	<defs>
		<rect id="SVGID_11_" width="110.9" height="93.2"/>
	</defs>
	<clipPath id="SVGID_12_">
		<use xlink:href="#SVGID_11_"  style="overflow:visible;"/>
	</clipPath>
	<path class="st1" d="M46.3,76.6h-1.3V68h5.9c1.8,0,2.8,0.9,2.8,2.4c0,1.2-0.8,2.2-2.1,2.4l2.4,3.8h-1.5l-2.4-3.8h-3.8V76.6z
		 M50.9,71.6c0.9,0,1.4-0.4,1.4-1.2c0-0.8-0.5-1.2-1.4-1.2h-4.6v2.3H50.9z"/>
</g>
<rect x="57" y="68" class="st0" width="1.4" height="8.6"/>
<g>
	<defs>
		<rect id="SVGID_13_" width="110.9" height="93.2"/>
	</defs>
	<clipPath id="SVGID_14_">
		<use xlink:href="#SVGID_13_"  style="overflow:visible;"/>
	</clipPath>
	<path class="st3" d="M62.1,74.4c1.2,0.8,2.7,1.3,4,1.3c1.6,0,2.6-0.7,2.6-1.7c0-1-0.9-1.4-2.7-1.5c-2.7,0-4.1-0.4-4.1-2.3
		c0-1.4,1.3-2.5,3.6-2.5c1.5,0,2.9,0.4,4.2,1.2l-0.7,1.1c-1.1-0.7-2.4-1.1-3.5-1.1c-1.4,0-2.2,0.5-2.2,1.2c0,0.8,0.9,1.1,2.7,1.1
		c2.8,0,4.2,1,4.2,2.8c0,1.5-1.4,2.8-3.8,2.8c-1.6,0-3.4-0.5-4.8-1.4L62.1,74.4z"/>
	<path class="st3" d="M80,65.5h6.6c2.2,0,3.3,1,3.3,2.8c0,0.9-0.3,1.6-1,2.1c1.2,0.7,1.8,1.7,1.8,3c0,2-1.4,3.4-3.8,3.4h-7V65.5z
		 M86.7,69.9c1.2,0,1.8-0.6,1.8-1.5c0-1.1-0.6-1.6-1.8-1.6h-5.3v3.1H86.7z M87.2,75.3c1.3,0,2-0.8,2-2.1c0-1.2-0.7-2.1-2-2.1h-5.8
		v4.2H87.2z"/>
</g>
<polygon class="st0" points="105.7,72.2 101.7,68 103.5,68 106.3,71.1 109.1,68 110.9,68 107,72.2 107,76.6 105.7,76.6 "/>
<polygon class="st0" points="38,70 41.4,76.6 42.8,76.6 38.4,68 37.5,68 33.1,76.6 34.6,76.6 "/>
<polygon class="st0" points="97,70 100.4,76.6 101.8,76.6 97.4,68 96.6,68 92.2,76.6 93.6,76.6 "/>
</svg>
