<?xml version="1.0" encoding="utf-8"?>
<!-- Generator: Adobe Illustrator 15.0.2, SVG Export Plug-In . SVG Version: 6.00 Build 0)  -->
<!DOCTYPE svg PUBLIC "-//W3C//DTD SVG 1.1//EN" "http://www.w3.org/Graphics/SVG/1.1/DTD/svg11.dtd">
<svg version="1.1" id="Layer_1" xmlns="http://www.w3.org/2000/svg" xmlns:xlink="http://www.w3.org/1999/xlink" x="0px" y="0px"
	 width="116.5px" height="97.9px" viewBox="0 0 116.5 97.9" style="enable-background:new 0 0 116.5 97.9;" xml:space="preserve">
<style type="text/css">
<![CDATA[
	.st0{clip-path:url(#SVGID_6_);fill:#FFFFFF;}
	.st1{clip-path:url(#SVGID_8_);fill:#FFFFFF;}
	.st2{clip-path:url(#SVGID_10_);fill:#FFFFFF;}
	.st3{fill:#FFFFFF;}
	.st4{clip-path:url(#SVGID_12_);fill:#FFFFFF;}
	.st5{clip-path:url(#SVGID_2_);fill:#FFFFFF;}
	.st6{clip-path:url(#SVGID_14_);fill:#FFFFFF;}
	.st7{clip-path:url(#SVGID_4_);fill:#FFFFFF;}
]]>
</style>
<path class="st3" d="M73.8,0H42.7L27.1,27L42,52.8l0,0l0,0l0.6,1.1h31.2l15.6-27L73.8,0z M75.6,46.5H48.2l1.7-3h27.4L75.6,46.5z
	 M51.1,41.4l1.7-3h27.4l-1.7,3L51.1,41.4z M54.1,36.2l1.7-3l27.4,0l-1.8,3H54.1z M57.1,31l1.7-2.9h27.4L84.5,31H57.1z M48,11.4
	L34.3,35l-1.7-3L46.2,8.3L48,11.4z M49.2,13.5l1.7,3L37.3,40.2l-1.7-3L49.2,13.5z M52.2,18.7l1.7,3L40.3,45.4l-1.8-3L52.2,18.7z
	 M45.2,2.2h3.4l13.7,23.7h-3.4L45.2,2.2z M76.8,25.9L63.2,2.2h3.5l13.7,23.7H76.8z M74.3,25.9h-3.5L57.1,2.2h3.5L74.3,25.9z
	 M68.3,25.9h-3.5L51.1,2.2h3.5L68.3,25.9z M86.2,25.9h-3.4L69.2,2.2h3.3L86.2,25.9z M43.3,3.3L45,6.2L31.3,29.9L29.6,27L43.3,3.3z
	 M41.5,47.6l13.7-23.7l1.8,3.1L43.3,50.6L41.5,47.6z M72.5,51.8H45.1l1.8-3h27.4L72.5,51.8z"/>
<g>
	<defs>
		<rect id="SVGID_1_" width="116.5" height="97.9"/>
	</defs>
	<clipPath id="SVGID_2_">
		<use xlink:href="#SVGID_1_"  style="overflow:visible;"/>
	</clipPath>
	<path class="st5" d="M6.8,89.8H9c0.4,0,0.8,0.1,1.1,0.2c0.3,0.1,0.6,0.2,0.8,0.4c0.2,0.2,0.4,0.4,0.6,0.6c0.2,0.2,0.3,0.4,0.4,0.7
		c0.1,0.2,0.2,0.5,0.2,0.7c0,0.2,0.1,0.4,0.1,0.6c0,0.4-0.1,0.8-0.2,1.1c-0.1,0.4-0.4,0.7-0.6,1c-0.3,0.3-0.6,0.5-1.1,0.7
		c-0.4,0.2-0.9,0.3-1.4,0.3h-2V89.8z M7.7,95.1h1.1c0.4,0,0.7,0,1-0.1c0.3-0.1,0.6-0.2,0.8-0.4c0.2-0.2,0.4-0.4,0.6-0.7
		c0.1-0.3,0.2-0.6,0.2-1c0-0.2,0-0.4-0.1-0.7c-0.1-0.3-0.2-0.5-0.4-0.7c-0.2-0.2-0.4-0.4-0.7-0.6c-0.3-0.2-0.7-0.2-1.2-0.2H7.7V95.1
		z"/>
</g>
<path class="st3" d="M17,89.8h0.8l2.6,6.1h-1l-0.6-1.5h-2.9l-0.6,1.5h-1L17,89.8z M18.5,93.6l-1.1-2.8h0l-1.2,2.8H18.5z"/>
<polygon class="st3" points="23.3,90.5 21.3,90.5 21.3,89.8 26.1,89.8 26.1,90.5 24.1,90.5 24.1,95.9 23.3,95.9 "/>
<g>
	<defs>
		<rect id="SVGID_3_" width="116.5" height="97.9"/>
	</defs>
	<clipPath id="SVGID_4_">
		<use xlink:href="#SVGID_3_"  style="overflow:visible;"/>
	</clipPath>
	<path class="st7" d="M30.2,97.3c0.2,0.1,0.4,0.1,0.7,0.1c0,0,0.1,0,0.2,0c0.1,0,0.1,0,0.2-0.1c0,0,0.1-0.1,0.1-0.1
		c0,0,0.1-0.1,0.1-0.2c0-0.1,0-0.2-0.1-0.2c-0.1,0-0.1-0.1-0.2-0.1c-0.1,0-0.2,0-0.3,0c-0.1,0-0.2,0-0.3,0.1l-0.2-0.2l0.4-0.6
		c-0.3,0-0.5-0.1-0.8-0.2c-0.4-0.2-0.7-0.4-1-0.7c-0.3-0.3-0.5-0.6-0.6-1c-0.1-0.4-0.2-0.8-0.2-1.1c0-0.5,0.1-0.9,0.2-1.3
		c0.2-0.4,0.4-0.7,0.7-1c0.3-0.3,0.6-0.5,1-0.7c0.4-0.2,0.8-0.2,1.3-0.2c0.4,0,0.8,0.1,1.2,0.2c0.4,0.2,0.7,0.4,1,0.7l-0.7,0.5
		c-0.2-0.2-0.4-0.4-0.7-0.5c-0.3-0.1-0.5-0.2-0.8-0.2c-0.3,0-0.7,0.1-0.9,0.2c-0.3,0.1-0.5,0.3-0.7,0.5c-0.2,0.2-0.4,0.5-0.5,0.8
		c-0.1,0.3-0.2,0.6-0.2,1c0,0.3,0.1,0.6,0.2,0.9c0.1,0.3,0.3,0.5,0.5,0.8c0.2,0.2,0.4,0.4,0.7,0.5c0.3,0.1,0.6,0.2,1,0.2
		c0.4,0,0.7-0.1,0.9-0.2c0.3-0.1,0.5-0.3,0.7-0.6l0.7,0.5c0,0.1-0.1,0.2-0.2,0.3c-0.1,0.1-0.3,0.2-0.5,0.4c-0.2,0.1-0.4,0.2-0.7,0.3
		C32,96,31.7,96,31.4,96h-0.1L31,96.4h0.3c0.1,0,0.2,0,0.3,0c0.1,0,0.2,0.1,0.3,0.1c0.1,0,0.1,0.1,0.2,0.2c0,0.1,0.1,0.2,0.1,0.3
		c0,0.2,0,0.3-0.1,0.4c-0.1,0.1-0.2,0.2-0.3,0.2c-0.1,0.1-0.2,0.1-0.3,0.1c-0.1,0-0.3,0.1-0.4,0.1c-0.2,0-0.3,0-0.5-0.1
		c-0.2,0-0.3-0.1-0.4-0.2L30.2,97.3z"/>
</g>
<path class="st3" d="M38.3,89.8H39l2.6,6.1h-1l-0.6-1.5h-2.9l-0.6,1.5h-1L38.3,89.8z M39.8,93.6l-1.1-2.8h0l-1.2,2.8H39.8z"/>
<g>
	<defs>
		<rect id="SVGID_5_" width="116.5" height="97.9"/>
	</defs>
	<clipPath id="SVGID_6_">
		<use xlink:href="#SVGID_5_"  style="overflow:visible;"/>
	</clipPath>
	<path class="st0" d="M48.1,89.8h2.2c0.4,0,0.7,0.1,1,0.2c0.3,0.1,0.5,0.2,0.6,0.4c0.1,0.2,0.2,0.4,0.3,0.6c0.1,0.2,0.1,0.4,0.1,0.6
		c0,0.2,0,0.4-0.1,0.6c-0.1,0.2-0.2,0.4-0.3,0.6c-0.1,0.2-0.4,0.3-0.6,0.4c-0.3,0.1-0.6,0.2-1,0.2H49v2.7h-0.8V89.8z M49,92.5h1.1
		c0.2,0,0.3,0,0.5,0c0.2,0,0.3-0.1,0.4-0.1c0.1-0.1,0.2-0.2,0.3-0.3c0.1-0.1,0.1-0.3,0.1-0.5c0-0.2,0-0.4-0.1-0.5
		c-0.1-0.1-0.2-0.2-0.3-0.3c-0.1-0.1-0.3-0.1-0.4-0.1c-0.2,0-0.3,0-0.5,0H49V92.5z"/>
</g>
<polygon class="st3" points="54.9,89.8 58.9,89.8 58.9,90.5 55.8,90.5 55.8,92.4 58.7,92.4 58.7,93.1 55.8,93.1 55.8,95.1 59,95.1 
	59,95.9 54.9,95.9 "/>
<polygon class="st3" points="61.9,89.8 63,89.8 66.3,94.8 66.4,94.8 66.4,89.8 67.2,89.8 67.2,95.9 66.1,95.9 62.7,90.8 62.7,90.8 
	62.7,95.9 61.9,95.9 "/>
<rect x="70.4" y="89.8" class="st3" width="0.8" height="6.1"/>
<polygon class="st3" points="74.5,89.8 75.6,89.8 78.9,94.8 78.9,94.8 78.9,89.8 79.8,89.8 79.8,95.9 78.7,95.9 75.3,90.8 
	75.3,90.8 75.3,95.9 74.5,95.9 "/>
<g>
	<defs>
		<rect id="SVGID_7_" width="116.5" height="97.9"/>
	</defs>
	<clipPath id="SVGID_8_">
		<use xlink:href="#SVGID_7_"  style="overflow:visible;"/>
	</clipPath>
	<path class="st1" d="M83.2,94.6c0.2,0.2,0.3,0.4,0.6,0.5c0.2,0.1,0.5,0.2,0.7,0.2c0.1,0,0.3,0,0.4-0.1c0.1,0,0.3-0.1,0.4-0.2
		c0.1-0.1,0.2-0.2,0.3-0.3c0.1-0.1,0.1-0.3,0.1-0.4c0-0.2-0.1-0.4-0.2-0.5c-0.1-0.1-0.3-0.2-0.6-0.3c-0.2-0.1-0.5-0.2-0.7-0.2
		c-0.3-0.1-0.5-0.2-0.7-0.3c-0.2-0.1-0.4-0.3-0.6-0.6c-0.2-0.2-0.2-0.5-0.2-0.9c0-0.2,0-0.4,0.1-0.6c0.1-0.2,0.2-0.4,0.4-0.6
		c0.2-0.2,0.4-0.3,0.6-0.4c0.3-0.1,0.6-0.2,0.9-0.2c0.3,0,0.7,0,1,0.1c0.3,0.1,0.6,0.3,0.8,0.6l-0.7,0.6c-0.1-0.2-0.3-0.3-0.4-0.4
		c-0.2-0.1-0.4-0.1-0.7-0.1c-0.2,0-0.4,0-0.6,0.1c-0.2,0.1-0.3,0.1-0.4,0.2c-0.1,0.1-0.2,0.2-0.2,0.3c0,0.1-0.1,0.2-0.1,0.3
		c0,0.3,0.1,0.5,0.2,0.6c0.1,0.1,0.3,0.3,0.6,0.3c0.2,0.1,0.5,0.2,0.7,0.2c0.3,0.1,0.5,0.2,0.7,0.3c0.2,0.1,0.4,0.3,0.6,0.5
		c0.1,0.2,0.2,0.5,0.2,0.9c0,0.3-0.1,0.6-0.2,0.8c-0.1,0.2-0.3,0.4-0.5,0.6c-0.2,0.2-0.4,0.3-0.7,0.4C85,96,84.8,96,84.5,96
		c-0.4,0-0.8-0.1-1.1-0.2c-0.4-0.1-0.6-0.4-0.8-0.6L83.2,94.6z"/>
	<path class="st1" d="M90.2,89.8v3.8c0,0.2,0,0.4,0.1,0.6c0.1,0.2,0.1,0.4,0.3,0.6c0.1,0.2,0.3,0.3,0.5,0.4c0.2,0.1,0.4,0.2,0.7,0.2
		c0.3,0,0.5-0.1,0.7-0.2c0.2-0.1,0.4-0.3,0.5-0.4c0.1-0.2,0.2-0.4,0.3-0.6c0-0.2,0.1-0.4,0.1-0.6v-3.8h0.8v3.9c0,0.4-0.1,0.7-0.2,1
		c-0.1,0.3-0.3,0.5-0.5,0.8c-0.2,0.2-0.5,0.4-0.8,0.5C92.4,96,92.1,96,91.7,96c-0.3,0-0.6-0.1-0.9-0.2c-0.3-0.1-0.5-0.3-0.8-0.5
		c-0.2-0.2-0.4-0.5-0.5-0.8c-0.1-0.3-0.2-0.6-0.2-1v-3.9H90.2z"/>
</g>
<polygon class="st3" points="97.2,89.8 98,89.8 98,95.1 100.9,95.1 100.9,95.9 97.2,95.9 "/>
<path class="st3" d="M105.3,89.8h0.8l2.6,6.1h-1l-0.6-1.5h-2.9l-0.6,1.5h-1L105.3,89.8z M106.8,93.6l-1.1-2.8h0l-1.2,2.8H106.8z"/>
<g>
	<defs>
		<rect id="SVGID_9_" width="116.5" height="97.9"/>
	</defs>
	<clipPath id="SVGID_10_">
		<use xlink:href="#SVGID_9_"  style="overflow:visible;"/>
	</clipPath>
	<path class="st2" d="M11.2,74.7c0,3.4-2.2,5.8-6.2,5.8H0V68.8h5C8.8,68.8,11.2,71.3,11.2,74.7 M1.5,70.1v9H5c3,0,4.7-1.9,4.7-4.5
		c0-2.6-1.7-4.5-4.7-4.5H1.5z"/>
</g>
<polygon class="st3" points="20.2,68.7 21.6,68.7 26.3,75.9 31.1,68.7 32.4,68.7 32.4,80.5 31,80.5 31,71.3 26.3,78.3 21.7,71.3 
	21.7,80.5 20.2,80.5 "/>
<g>
	<defs>
		<rect id="SVGID_11_" width="116.5" height="97.9"/>
	</defs>
	<clipPath id="SVGID_12_">
		<use xlink:href="#SVGID_11_"  style="overflow:visible;"/>
	</clipPath>
	<path class="st4" d="M48.6,80.5h-1.4v-9.1h6.2c1.8,0,3,0.9,3,2.5c0,1.3-0.9,2.3-2.2,2.5l2.5,4h-1.5l-2.6-4h-4V80.5z M53.4,75.2
		c1,0,1.5-0.4,1.5-1.2c0-0.8-0.5-1.2-1.5-1.2h-4.8v2.5H53.4z"/>
</g>
<rect x="59.8" y="71.4" class="st3" width="1.4" height="9.1"/>
<g>
	<defs>
		<rect id="SVGID_13_" width="116.5" height="97.9"/>
	</defs>
	<clipPath id="SVGID_14_">
		<use xlink:href="#SVGID_13_"  style="overflow:visible;"/>
	</clipPath>
	<path class="st6" d="M65.2,78.1c1.3,0.9,2.9,1.3,4.2,1.3c1.7,0,2.7-0.8,2.7-1.8c0-1.1-0.9-1.5-2.8-1.6c-2.8,0-4.3-0.4-4.3-2.4
		c0-1.5,1.4-2.6,3.7-2.6c1.6,0,3,0.4,4.4,1.3l-0.7,1.2c-1.2-0.8-2.5-1.2-3.7-1.2c-1.4,0-2.3,0.6-2.3,1.3c0,0.9,0.9,1.1,2.8,1.1
		c2.9,0,4.4,1,4.4,2.9c0,1.6-1.5,3-4,3c-1.7,0-3.5-0.5-5-1.4L65.2,78.1z"/>
	<path class="st6" d="M83.9,68.7h6.9c2.3,0,3.5,1,3.5,2.9c0,0.9-0.4,1.7-1.1,2.2c1.3,0.7,1.9,1.8,1.9,3.1c0,2.1-1.5,3.5-4,3.5h-7.3
		V68.7z M91,73.4c1.2,0,1.9-0.6,1.9-1.6c0-1.1-0.6-1.7-1.9-1.7h-5.6v3.3H91z M91.5,79.1c1.4,0,2.2-0.9,2.2-2.2
		c0-1.3-0.8-2.2-2.2-2.2h-6.1v4.4H91.5z"/>
</g>
<polygon class="st3" points="110.9,75.8 106.8,71.4 108.6,71.4 111.6,74.6 114.6,71.4 116.5,71.4 112.3,75.8 112.3,80.5 110.9,80.5 
	"/>
<polygon class="st3" points="39.9,73.5 43.4,80.5 45,80.5 40.3,71.4 39.4,71.4 34.8,80.5 36.3,80.5 "/>
<polygon class="st3" points="101.8,73.5 105.4,80.5 106.9,80.5 102.3,71.4 101.4,71.4 96.8,80.5 98.3,80.5 "/>
</svg>
