<?xml version="1.0" encoding="utf-8"?>
<!-- Generator: Adobe Illustrator 15.0.2, SVG Export Plug-In . SVG Version: 6.00 Build 0)  -->
<!DOCTYPE svg PUBLIC "-//W3C//DTD SVG 1.1//EN" "http://www.w3.org/Graphics/SVG/1.1/DTD/svg11.dtd">
<svg version="1.1" id="Layer_1" xmlns="http://www.w3.org/2000/svg" xmlns:xlink="http://www.w3.org/1999/xlink" x="0px" y="0px"
	 width="132.3px" height="39.6px" viewBox="0 0 132.3 39.6" enable-background="new 0 0 132.3 39.6" xml:space="preserve">
<g>
	<defs>
		<rect id="SVGID_1_" width="132.3" height="39.6"/>
	</defs>
	<clipPath id="SVGID_2_">
		<use xlink:href="#SVGID_1_"  overflow="visible"/>
	</clipPath>
	<path clip-path="url(#SVGID_2_)" fill="#55565A" d="M13,24.7c0,0-3.4,10.5-3.4,10.8c-0.3-1-2.1-7.5-2.4-8.5C7.1,26.5,7,25.8,7,25.5
		c0-0.4,0.1-0.7,0.1-0.8l0.1-0.1c0,0-0.8,0.1-1.4,0.2C5.3,24.8,4.4,25,4.4,25l0.1,0.1c0.3,0.4,0.4,0.7,0.8,2L9,39.6h0.2
		c0,0,3.4-10.4,3.5-10.7c0.1,0.2,3.6,10.7,3.6,10.7h0.2l3.8-12.5c0.4-1.3,0.6-1.7,0.9-2l0.1-0.1c-0.1,0-0.5-0.1-1-0.2
		c-0.5-0.1-1-0.2-1-0.2l0.1,0.1c0,0,0.1,0.2,0.1,0.6c0,0.3-0.1,1.1-0.3,1.8c0,0-2.3,8.2-2.4,8.5c-0.1-0.2-3.6-10.8-3.6-10.8H13z
		 M21.5,7.7L21.5,7.7c0.5,1.1,0.7,2.1,0.7,4.6c0,0-0.1,7.7-0.1,7.8c-0.5-0.1-5.1-0.9-9.3-0.9c-4.4,0-8.8,0.8-9.3,0.9
		c0-0.1,0-7.8,0-7.8c0-2.5,0.3-3.5,0.8-4.6l0-0.1H0.1l0,0.1c0.5,1,0.7,2,0.7,4.6l0,19.4c0,2.6-0.4,3.5-0.8,4.6l0,0.1h4.2l0-0.1
		c-0.5-1-0.7-2-0.7-4.6c0,0,0-9.6,0-9.7c0.3-0.1,4.1-1,9.3-1c5.1,0,9,0.9,9.3,1c0,0.1,0.1,9.7,0.1,9.7c0,2.6-0.3,3.5-0.7,4.6l0,0.1
		h4.1l0-0.1c-0.5-1-0.7-2-0.7-4.6l0-19.4c0-2.5,0.3-3.5,0.8-4.6l0-0.1L21.5,7.7z M11.8,0L11.8,0c-0.3,0.6-0.5,1.2-0.5,2.5
		c0,0,0,11.7,0,11.8c0.6,0,1.7,0,2,0c2,0,4,0.3,4.9-0.6l0.1,0l-0.7,1.9c-1.1-0.1-2.6-0.3-4.2-0.3c-1.4,0-2.5,0-4.4,0.2l-0.1,0l0-0.1
		C9,15,9.2,14.5,9.2,13.1l0-10.5c0-1.4-0.1-1.9-0.4-2.5l0-0.1H11.8z"/>
	<path clip-path="url(#SVGID_2_)" fill="#55565A" d="M87.1,17h-3.3V8.7h3.3c3,0,4.3,1.4,4.3,4.1C91.3,15.2,90.1,17,87.1,17
		 M87.1,7.6h-5.7c0.2,0.4,0.3,0.7,0.3,1.7l0,7.2c0,1-0.2,1.3-0.4,1.7h5.7c3.3,0,6.3-1.7,6.3-5.4C93.4,8.4,89.9,7.6,87.1,7.6
		 M115.9,9.3c0-0.9,0.1-1.3,0.3-1.7h-1.8c0.2,0.4,0.3,0.7,0.3,1.7v6.5l-6.9-8.2c0,0-2.5,0-2.5,0c0.2,0.4,0.3,0.7,0.3,1.7l0,7.2
		c0,0.9-0.1,1.3-0.3,1.7h1.8c-0.2-0.4-0.3-0.7-0.3-1.7v-7l7.3,8.8h1.8V9.3z M49.9,16.5c-0.8,0.6-2.8,0.5-4.6,0.5c-0.6,0-1.9,0-1.9,0
		l0-7.7c0-1,0.2-1.3,0.4-1.7c0,0-2.6,0-2.6,0c0.2,0.4,0.3,0.8,0.3,1.7l0,7.2c0,1-0.2,1.3-0.4,1.7h8.4L49.9,16.5z M99.9,9.3
		c0-1,0.2-1.3,0.4-1.7h-2.6C97.9,8,98,8.3,98,9.3l0,7.2c0,1-0.2,1.3-0.4,1.7h2.6c-0.2-0.4-0.3-0.8-0.3-1.7L99.9,9.3z M58.2,17
		c-0.6,0-3.1,0-3.1,0l0-3.9c1.2,0,5.2,0,5.9,0.3v-1.8c-0.5,0.4-4.4,0.4-5.9,0.3V8.7c0,0,5.5-0.1,6.7,0.2c0.3,0.1,0.6,0.2,0.6,0.2
		c0,0,0-1.6,0-1.6c0,0-9.5,0-9.5,0c0.2,0.4,0.3,0.8,0.3,1.7l0,7.2c0,1-0.1,1.3-0.3,1.7l9.7,0l0.3-1.7C62.1,17.1,60,17,58.2,17
		 M132.3,8.4c-1.1-0.6-3-1-4.7-1c-2.6,0-4.3,0.7-5.4,1.6c-1.3,0.9-2,2.3-1.9,3.8c0,1.4,0.8,2.9,1.9,3.8c1.4,1.1,3.2,1.8,5.4,1.8
		c1.8,0,3.2-0.4,4.7-1.2v-4.3l-2.3,0c0.2,0.2,0.4,0.6,0.4,1.5l0,2.4c-0.8,0.4-1.6,0.6-2.7,0.6c-1.9,0-3.3-0.5-4.2-1.5
		c-0.8-0.9-1.2-1.8-1.2-2.9s0.5-2.1,1.3-2.8c1.1-1,2.4-1.4,4.1-1.4c1.5,0,3,0.4,4,1c0.3,0.2,0.5,0.3,0.6,0.5V8.4z M68.7,14.1h4.6
		l-2.3-4.5L68.7,14.1z M72.1,7.6l5.2,9.5c0.3,0.5,0.6,0.9,0.9,1.1c-0.1,0-3.3,0-3.3,0c0.2-0.3,0.2-0.7-0.1-1.2l-1-1.8h-5.7l-1,2
		c-0.2,0.4-0.2,0.8,0,1h-2.3c0.3-0.2,0.6-0.6,0.8-0.9l5.2-9.7L72.1,7.6z"/>
	<path clip-path="url(#SVGID_2_)" fill="#55565A" d="M113.9,34.8c-0.8,0.6-2.8,0.5-4.6,0.5c-0.6,0-1.9,0-1.9,0l0-7.7
		c0-1,0.2-1.3,0.4-1.7c0,0-2.6,0-2.6,0c0.2,0.4,0.3,0.8,0.3,1.7l0,7.2c0,1-0.2,1.3-0.4,1.7l8.4,0L113.9,34.8z M121.4,25.8
		c-2.5-0.1-4.7,0.6-4.9,2.7c-0.1,0.5,0.1,1.1,0.4,1.6c1.4,1.6,5,1.8,6.4,2.9c0.4,0.3,0.6,0.8,0.6,1.2c-0.1,1.2-1.7,1.5-3.5,1.5
		c-2.6-0.1-3.8-1-4.2-1.4c0,0.1,0.1,1.7,0.1,1.7c0.8,0.3,2.3,0.7,4.1,0.8c2.8,0.1,5.3-0.7,5.6-3c0-0.5-0.1-1.2-0.5-1.7
		c-0.9-1-2.5-1.4-4.1-1.9c-1.5-0.5-2.9-0.7-2.8-1.8c0-0.9,1.5-1.3,2.8-1.3c1.1,0,2.3,0.2,3.1,0.6c0.4,0.2,0.7,0.3,1.1,0.6l0-1.6
		C124.4,26.1,122.7,25.8,121.4,25.8 M62.6,31.1c0,1.4,0.4,2.5,1.6,3.5c0.6,0.5,1.6,0.9,3,0.9c1.4,0,2.3-0.3,3.1-0.9
		c1-0.9,1.5-2.2,1.5-3.5c0-1.5-0.5-2.7-1.6-3.5c-0.8-0.5-1.6-0.8-3-0.8c-1.5,0-2.4,0.4-3,0.8C63.3,28.3,62.6,29.5,62.6,31.1
		 M67.2,25.7c2.2,0,4.2,0.7,5.3,1.9c0.8,0.8,1.3,2.1,1.3,3.5c0,1-0.5,2.4-1.3,3.4c-1.4,1.6-3.1,2.2-5.3,2.2c-2.2,0-4.2-0.8-5.4-2.2
		c-0.8-0.9-1.3-2.2-1.2-3.4c0-1.4,0.6-2.5,1.5-3.4C63.4,26.3,65.2,25.7,67.2,25.7 M55.9,27.6c0-1,0.2-1.3,0.4-1.7c0,0-2.6,0-2.6,0
		c0.2,0.4,0.3,0.8,0.3,1.7l0,2.6h-6.7v-2.6c0-1,0.2-1.3,0.4-1.7c0,0-2.6,0-2.6,0c0.2,0.4,0.3,0.8,0.3,1.7v7.2c0,1-0.2,1.3-0.4,1.7
		h2.6c-0.2-0.4-0.3-0.8-0.3-1.7l0-3.4H54l0,3.4c0,1-0.2,1.3-0.4,1.7h2.6c-0.2-0.4-0.3-0.8-0.3-1.7L55.9,27.6z M95.9,35.3
		c-0.6,0-3.1,0-3.1-0.1v-3.9c1.2,0,5.2,0,5.9,0.3v-1.8c-0.5,0.4-4.4,0.4-5.9,0.3V27c0,0,5.5-0.1,6.7,0.2c0.3,0.1,0.6,0.2,0.6,0.2
		c0,0,0-1.6,0-1.6l-9.5,0c0.2,0.4,0.3,0.8,0.3,1.7l0,7.2c0,1-0.1,1.3-0.3,1.7l9.7,0l0.3-1.7C99.7,35.4,97.7,35.3,95.9,35.3 M82.4,27
		l2.3,0c0.9,0,1.6,0.1,1.9,0.4v-1.5H76.4v1.5c0.3-0.4,1.1-0.4,1.9-0.4l2.3,0v7.8c0,1-0.2,1.3-0.4,1.7c0,0,2.6,0,2.6,0
		c-0.2-0.4-0.3-0.8-0.3-1.7V27z"/>
	<path clip-path="url(#SVGID_2_)" fill="#55565A" d="M129.6,27h0.4c0.2,0,0.3,0,0.3,0c0.1,0,0.1,0.1,0.1,0.1c0,0.1,0.1,0.1,0.1,0.2
		c0,0.1,0,0.2-0.1,0.2c-0.1,0.1-0.2,0.1-0.4,0.1h-0.4V27z M129.6,28.8v-0.9h0.2c0.1,0,0.2,0,0.3,0.1c0.1,0.1,0.2,0.2,0.4,0.5
		l0.2,0.3h0.4l-0.3-0.4c-0.1-0.2-0.2-0.3-0.3-0.4c0,0-0.1-0.1-0.2-0.1c0.2,0,0.3-0.1,0.4-0.2c0.1-0.1,0.2-0.3,0.2-0.4
		c0-0.1,0-0.2-0.1-0.3c-0.1-0.1-0.2-0.2-0.3-0.2c-0.1,0-0.3-0.1-0.5-0.1h-0.7v2.1H129.6z M131,26.3c0.3,0.1,0.5,0.3,0.6,0.6
		c0.2,0.3,0.2,0.5,0.2,0.8c0,0.3-0.1,0.6-0.2,0.8c-0.1,0.3-0.4,0.5-0.6,0.6c-0.3,0.1-0.5,0.2-0.8,0.2c-0.3,0-0.6-0.1-0.8-0.2
		c-0.3-0.1-0.5-0.4-0.6-0.6c-0.1-0.3-0.2-0.5-0.2-0.8c0-0.3,0.1-0.6,0.2-0.8c0.1-0.3,0.4-0.5,0.6-0.6c0.3-0.1,0.5-0.2,0.8-0.2
		C130.5,26.1,130.7,26.2,131,26.3 M129.2,26c-0.3,0.2-0.6,0.4-0.7,0.7c-0.2,0.3-0.3,0.6-0.3,1c0,0.3,0.1,0.7,0.3,1
		c0.2,0.3,0.4,0.6,0.7,0.7c0.3,0.2,0.6,0.3,1,0.3s0.7-0.1,1-0.3c0.3-0.2,0.6-0.4,0.7-0.7c0.2-0.3,0.3-0.6,0.3-1c0-0.3-0.1-0.7-0.3-1
		c-0.2-0.3-0.4-0.6-0.7-0.7c-0.3-0.2-0.6-0.3-1-0.3C129.8,25.8,129.5,25.8,129.2,26"/>
</g>
</svg>
